<svg width="597" height="318" fill="none" xmlns="http://www.w3.org/2000/svg"><path d="M305.284 68.476c0 3.736-3.058 6.802-6.784 6.802s-6.783-3.066-6.783-6.802c0-3.736 3.057-6.801 6.783-6.801 3.726.096 6.784 3.065 6.784 6.801zm-90.29 48.088c0 3.736-3.057 6.801-6.783 6.801-3.726 0-6.784-3.065-6.784-6.801s3.058-6.801 6.784-6.801 6.783 3.065 6.783 6.801zm0 96.08c0 3.736-3.057 6.801-6.783 6.801-3.726 0-6.784-3.065-6.784-6.801s3.058-6.802 6.784-6.802 6.783 3.066 6.783 6.802zm90.29 48.087c0 3.736-3.058 6.802-6.784 6.802s-6.783-3.066-6.783-6.802c0-3.735 3.057-6.801 6.783-6.801a6.758 6.758 0 016.784 6.801zm0-96.175c0 3.736-3.058 6.801-6.784 6.801s-6.783-3.065-6.783-6.801 3.057-6.801 6.783-6.801c3.726.095 6.784 3.065 6.784 6.801zm90.288-47.992c0 3.736-3.057 6.801-6.783 6.801-3.726 0-6.784-3.065-6.784-6.801s3.058-6.801 6.784-6.801 6.783 3.065 6.783 6.801zm0 96.08c0 3.736-3.057 6.801-6.783 6.801-3.726 0-6.784-3.065-6.784-6.801s3.058-6.802 6.784-6.802 6.783 3.066 6.783 6.802zM214.994 188.6c0 3.736-3.057 6.801-6.783 6.801-3.726 0-6.784-3.065-6.784-6.801s3.058-6.801 6.784-6.801 6.783 3.065 6.783 6.801zm22.549-84.01c0 3.736-3.057 6.801-6.784 6.801-3.726 0-6.783-3.065-6.783-6.801s3.057-6.801 6.783-6.801a6.757 6.757 0 016.784 6.801zm135.386 0c0 3.736-3.058 6.801-6.784 6.801s-6.783-3.065-6.783-6.801 3.057-6.801 6.783-6.801c3.822 0 6.784 2.969 6.784 6.801zM260.091 92.52c0 3.736-3.057 6.801-6.783 6.801-3.727 0-6.784-3.065-6.784-6.8 0-3.737 3.057-6.802 6.784-6.802 3.821 0 6.783 3.065 6.783 6.801zm90.289 0c0 3.736-3.057 6.801-6.783 6.801-3.727 0-6.784-3.065-6.784-6.8 0-3.737 3.057-6.802 6.784-6.802 3.726 0 6.783 3.065 6.783 6.801zm-67.645-11.974c0 3.736-3.057 6.801-6.783 6.801-3.726 0-6.784-3.065-6.784-6.8 0-3.737 3.058-6.802 6.784-6.802s6.783 3.065 6.783 6.801zm45.097 0c0 3.736-3.058 6.801-6.784 6.801s-6.783-3.065-6.783-6.8c0-3.737 3.057-6.802 6.783-6.802 3.726 0 6.784 3.065 6.784 6.801zm-22.548 132.098c0 3.736-3.058 6.801-6.784 6.801s-6.783-3.065-6.783-6.801 3.057-6.802 6.783-6.802c3.726 0 6.784 3.066 6.784 6.802zm-22.549 36.018c0 3.736-3.057 6.801-6.783 6.801-3.726 0-6.784-3.065-6.784-6.801s3.058-6.802 6.784-6.802 6.783 3.066 6.783 6.802zm45.097 0c0 3.736-3.058 6.801-6.784 6.801s-6.783-3.065-6.783-6.801 3.057-6.802 6.783-6.802c3.726 0 6.784 3.066 6.784 6.802zm-67.741-11.974c0 3.735-3.057 6.801-6.783 6.801-3.727 0-6.784-3.066-6.784-6.801 0-3.736 3.057-6.802 6.784-6.802 3.821 0 6.783 3.066 6.783 6.802zm45.193 0c0 3.735-3.058 6.801-6.784 6.801s-6.783-3.066-6.783-6.801c0-3.736 3.057-6.802 6.783-6.802 3.726 0 6.784 3.066 6.784 6.802zm45.096 0c0 3.735-3.057 6.801-6.783 6.801-3.727 0-6.784-3.066-6.784-6.801 0-3.736 3.057-6.802 6.784-6.802 3.726 0 6.783 3.066 6.783 6.802zm-112.837-12.07c0 3.736-3.057 6.801-6.784 6.801-3.726 0-6.783-3.065-6.783-6.801s3.057-6.802 6.783-6.802c3.727.096 6.784 3.066 6.784 6.802zm135.386 0c0 3.736-3.058 6.801-6.784 6.801s-6.783-3.065-6.783-6.801 3.057-6.802 6.783-6.802c3.822.096 6.784 3.066 6.784 6.802zM305.284 188.6c0 3.736-3.058 6.801-6.784 6.801s-6.783-3.065-6.783-6.801 3.057-6.801 6.783-6.801c3.726 0 6.784 3.065 6.784 6.801zm-22.549-36.018c0 3.736-3.057 6.801-6.783 6.801-3.726 0-6.784-3.065-6.784-6.801s3.058-6.801 6.784-6.801 6.783 3.065 6.783 6.801zm-22.644-11.974c0 3.736-3.057 6.801-6.783 6.801-3.727 0-6.784-3.065-6.784-6.801s3.057-6.801 6.784-6.801c3.821 0 6.783 3.065 6.783 6.801zm-22.548-12.07c0 3.736-3.057 6.801-6.784 6.801-3.726 0-6.783-3.065-6.783-6.801s3.057-6.801 6.783-6.801c3.727 0 6.784 3.065 6.784 6.801z" fill="#95D445"/><path d="M212.988 164.556c0 2.586-2.102 4.79-4.777 4.79-2.58 0-4.777-2.108-4.777-4.79 0-2.586 2.102-4.79 4.777-4.79 2.58.096 4.777 2.204 4.777 4.79zm45.097-96.08c0 2.587-2.102 4.79-4.778 4.79-2.579 0-4.777-2.108-4.777-4.79 0-2.586 2.102-4.79 4.777-4.79 2.676.096 4.778 2.204 4.778 4.79zm90.289 0c0 2.587-2.102 4.79-4.777 4.79-2.58 0-4.778-2.108-4.778-4.79 0-2.586 2.102-4.79 4.778-4.79 2.675.096 4.777 2.204 4.777 4.79zm-67.741-11.974c0 2.587-2.102 4.79-4.777 4.79-2.58 0-4.777-2.108-4.777-4.79 0-2.586 2.102-4.79 4.777-4.79 2.675 0 4.777 2.204 4.777 4.79zm45.193 0c0 2.587-2.102 4.79-4.778 4.79-2.579 0-4.777-2.108-4.777-4.79 0-2.586 2.102-4.79 4.777-4.79 2.676 0 4.778 2.204 4.778 4.79zm-22.549-11.974c0 2.587-2.102 4.79-4.777 4.79-2.58 0-4.777-2.108-4.777-4.79 0-2.586 2.102-4.79 4.777-4.79 2.58 0 4.777 2.108 4.777 4.79zm-45.192 72.036c0 2.586-2.102 4.79-4.778 4.79-2.579 0-4.777-2.108-4.777-4.79 0-2.586 2.102-4.79 4.777-4.79 2.676 0 4.778 2.204 4.778 4.79zm90.289 0c0 2.586-2.102 4.79-4.777 4.79-2.58 0-4.778-2.108-4.778-4.79 0-2.586 2.102-4.79 4.778-4.79 2.675 0 4.777 2.204 4.777 4.79zm-158.03-11.974c0 2.586-2.102 4.79-4.777 4.79-2.579 0-4.777-2.108-4.777-4.79 0-2.586 2.102-4.79 4.777-4.79 2.675 0 4.777 2.108 4.777 4.79zm90.289 0c0 2.586-2.102 4.79-4.777 4.79-2.58 0-4.777-2.108-4.777-4.79 0-2.586 2.102-4.79 4.777-4.79 2.675 0 4.777 2.108 4.777 4.79zm45.193 0c0 2.586-2.102 4.79-4.778 4.79-2.579 0-4.777-2.108-4.777-4.79 0-2.586 2.102-4.79 4.777-4.79 2.676 0 4.778 2.108 4.778 4.79zm90.288 0c0 2.586-2.102 4.79-4.777 4.79-2.579 0-4.777-2.108-4.777-4.79 0-2.586 2.102-4.79 4.777-4.79 2.58 0 4.777 2.108 4.777 4.79zM212.988 92.52c0 2.587-2.102 4.79-4.777 4.79-2.58 0-4.777-2.108-4.777-4.79 0-2.586 2.102-4.79 4.777-4.79 2.58.096 4.777 2.204 4.777 4.79zm90.289 0c0 2.587-2.102 4.79-4.777 4.79-2.58 0-4.777-2.108-4.777-4.79 0-2.586 2.102-4.79 4.777-4.79 2.58.096 4.777 2.204 4.777 4.79zm90.194 0c0 2.587-2.102 4.79-4.778 4.79-2.579 0-4.777-2.108-4.777-4.79 0-2.586 2.102-4.79 4.777-4.79 2.676.096 4.778 2.204 4.778 4.79zM235.537 80.546c0 2.586-2.102 4.79-4.778 4.79-2.579 0-4.777-2.108-4.777-4.79 0-2.586 2.102-4.79 4.777-4.79 2.676 0 4.778 2.108 4.778 4.79zm135.385 0c0 2.586-2.102 4.79-4.777 4.79-2.58 0-4.777-2.108-4.777-4.79 0-2.586 2.102-4.79 4.777-4.79 2.675 0 4.777 2.108 4.777 4.79zM258.085 212.644c0 2.586-2.102 4.789-4.778 4.789-2.579 0-4.777-2.107-4.777-4.789 0-2.587 2.102-4.79 4.777-4.79 2.676 0 4.778 2.203 4.778 4.79zm90.289 0c0 2.586-2.102 4.789-4.777 4.789-2.58 0-4.778-2.107-4.778-4.789 0-2.587 2.102-4.79 4.778-4.79 2.675 0 4.777 2.203 4.777 4.79zm-90.289 48.087c0 2.587-2.102 4.79-4.778 4.79-2.579 0-4.777-2.107-4.777-4.79 0-2.586 2.102-4.789 4.777-4.789 2.676 0 4.778 2.107 4.778 4.789zm90.289 0c0 2.587-2.102 4.79-4.777 4.79-2.58 0-4.778-2.107-4.778-4.79 0-2.586 2.102-4.789 4.778-4.789 2.675 0 4.777 2.107 4.777 4.789zm-112.837-12.069c0 2.586-2.102 4.789-4.778 4.789-2.579 0-4.777-2.107-4.777-4.789 0-2.587 2.102-4.79 4.777-4.79 2.676.096 4.778 2.203 4.778 4.79zm135.385 0c0 2.586-2.102 4.789-4.777 4.789-2.58 0-4.777-2.107-4.777-4.789 0-2.587 2.102-4.79 4.777-4.79 2.675.096 4.777 2.203 4.777 4.79zm-67.645 36.018c0 2.586-2.102 4.789-4.777 4.789-2.58 0-4.777-2.107-4.777-4.789 0-2.683 2.102-4.79 4.777-4.79 2.58.096 4.777 2.203 4.777 4.79zm-22.644-11.974c0 2.586-2.102 4.789-4.777 4.789-2.58 0-4.777-2.107-4.777-4.789 0-2.683 2.102-4.79 4.777-4.79 2.675 0 4.777 2.203 4.777 4.79zm45.193 0c0 2.586-2.102 4.789-4.778 4.789-2.579 0-4.777-2.107-4.777-4.789 0-2.683 2.102-4.79 4.777-4.79 2.676 0 4.778 2.203 4.778 4.79zm-112.838-36.018c0 2.586-2.102 4.789-4.777 4.789-2.58 0-4.777-2.107-4.777-4.789 0-2.587 2.102-4.79 4.777-4.79 2.58 0 4.777 2.107 4.777 4.79zm180.483 0c0 2.586-2.102 4.789-4.778 4.789-2.579 0-4.777-2.107-4.777-4.789 0-2.587 2.102-4.79 4.777-4.79 2.676 0 4.778 2.107 4.778 4.79zm-203.127-12.07c0 2.586-2.102 4.789-4.777 4.789-2.579 0-4.777-2.107-4.777-4.789 0-2.587 2.102-4.79 4.777-4.79 2.675.096 4.777 2.203 4.777 4.79zm90.289 0c0 2.586-2.102 4.789-4.777 4.789-2.58 0-4.777-2.107-4.777-4.789 0-2.587 2.102-4.79 4.777-4.79 2.675.096 4.777 2.203 4.777 4.79zm45.193 0c0 2.586-2.102 4.789-4.778 4.789-2.579 0-4.777-2.107-4.777-4.789 0-2.587 2.102-4.79 4.777-4.79 2.676.096 4.778 2.203 4.778 4.79zm90.288 0c0 2.586-2.102 4.789-4.777 4.789-2.579 0-4.777-2.107-4.777-4.789 0-2.587 2.102-4.79 4.777-4.79 2.58.096 4.777 2.203 4.777 4.79zm-158.029-60.062c0 2.586-2.102 4.79-4.778 4.79-2.579 0-4.777-2.108-4.777-4.79 0-2.586 2.102-4.79 4.777-4.79 2.676.096 4.778 2.204 4.778 4.79zM393.471 188.6c0 2.586-2.102 4.789-4.778 4.789-2.579 0-4.777-2.107-4.777-4.789 0-2.587 2.102-4.79 4.777-4.79 2.676.096 4.778 2.203 4.778 4.79zm-203.127-36.018c0 2.586-2.102 4.789-4.777 4.789-2.579 0-4.777-2.107-4.777-4.789 0-2.587 2.102-4.79 4.777-4.79 2.675 0 4.777 2.203 4.777 4.79zm45.193 0c0 2.586-2.102 4.789-4.778 4.789-2.579 0-4.777-2.107-4.777-4.789 0-2.587 2.102-4.79 4.777-4.79 2.676 0 4.778 2.203 4.778 4.79zm90.289 0c0 2.586-2.102 4.789-4.778 4.789-2.579 0-4.777-2.107-4.777-4.789 0-2.587 2.102-4.79 4.777-4.79 2.676 0 4.778 2.203 4.778 4.79zm-112.838-11.974c0 2.586-2.102 4.789-4.777 4.789-2.58 0-4.777-2.107-4.777-4.789 0-2.587 2.102-4.79 4.777-4.79 2.58 0 4.777 2.108 4.777 4.79zm90.289 0c0 2.586-2.102 4.789-4.777 4.789-2.58 0-4.777-2.107-4.777-4.789 0-2.587 2.102-4.79 4.777-4.79 2.58 0 4.777 2.108 4.777 4.79zm90.194 0c0 2.586-2.102 4.789-4.778 4.789-2.579 0-4.777-2.107-4.777-4.789 0-2.587 2.102-4.79 4.777-4.79 2.676 0 4.778 2.108 4.778 4.79zm-203.127-12.07c0 2.586-2.102 4.79-4.777 4.79-2.579 0-4.777-2.108-4.777-4.79 0-2.586 2.102-4.79 4.777-4.79 2.675.096 4.777 2.204 4.777 4.79zm90.289 0c0 2.586-2.102 4.79-4.777 4.79-2.58 0-4.777-2.108-4.777-4.79 0-2.586 2.102-4.79 4.777-4.79 2.675.096 4.777 2.204 4.777 4.79zm90.289 0c0 2.586-2.102 4.79-4.777 4.79-2.58 0-4.777-2.108-4.777-4.79 0-2.586 2.102-4.79 4.777-4.79 2.675.096 4.777 2.204 4.777 4.79zm45.192 0c0 2.586-2.102 4.79-4.777 4.79-2.579 0-4.777-2.108-4.777-4.79 0-2.586 2.102-4.79 4.777-4.79 2.58.096 4.777 2.204 4.777 4.79zm-225.77 72.132c0 2.586-2.102 4.789-4.777 4.789-2.579 0-4.777-2.107-4.777-4.789 0-2.587 2.102-4.79 4.777-4.79 2.675 0 4.777 2.107 4.777 4.79zm45.193 0c0 2.586-2.102 4.789-4.778 4.789-2.579 0-4.777-2.107-4.777-4.789 0-2.587 2.102-4.79 4.777-4.79 2.676 0 4.778 2.107 4.778 4.79zm45.096 0c0 2.586-2.102 4.789-4.777 4.789-2.58 0-4.777-2.107-4.777-4.789 0-2.587 2.102-4.79 4.777-4.79 2.675 0 4.777 2.107 4.777 4.79zm45.193 0c0 2.586-2.102 4.789-4.778 4.789-2.579 0-4.777-2.107-4.777-4.789 0-2.587 2.102-4.79 4.777-4.79 2.676 0 4.778 2.107 4.778 4.79zm45.096 0c0 2.586-2.102 4.789-4.777 4.789-2.58 0-4.777-2.107-4.777-4.789 0-2.587 2.102-4.79 4.777-4.79 2.675 0 4.777 2.107 4.777 4.79zm45.192 0c0 2.586-2.102 4.789-4.777 4.789-2.579 0-4.777-2.107-4.777-4.789 0-2.587 2.102-4.79 4.777-4.79 2.58 0 4.777 2.107 4.777 4.79zm-225.77-24.044c0 2.586-2.102 4.789-4.777 4.789-2.579 0-4.777-2.107-4.777-4.789 0-2.587 2.102-4.79 4.777-4.79 2.675 0 4.777 2.108 4.777 4.79zm90.289 0c0 2.586-2.102 4.789-4.777 4.789-2.58 0-4.777-2.107-4.777-4.789 0-2.587 2.102-4.79 4.777-4.79 2.675 0 4.777 2.108 4.777 4.79zm45.193 0c0 2.586-2.102 4.789-4.778 4.789-2.579 0-4.777-2.107-4.777-4.789 0-2.587 2.102-4.79 4.777-4.79 2.676 0 4.778 2.108 4.778 4.79z" fill="#69BB72"/><path d="M31.073 20.484a3.328 3.328 0 01-3.344 3.353c-1.911 0-3.345-1.533-3.345-3.353a3.328 3.328 0 013.345-3.352c1.815-.096 3.344 1.436 3.344 3.352zm45.097 0a3.328 3.328 0 01-3.345 3.353c-1.91 0-3.344-1.533-3.344-3.353a3.328 3.328 0 013.344-3.352c1.816-.096 3.344 1.436 3.344 3.352zm90.288 0a3.328 3.328 0 01-3.344 3.353c-1.911 0-3.344-1.533-3.344-3.353a3.328 3.328 0 013.344-3.352c1.815-.096 3.344 1.436 3.344 3.352zm45.193 0a3.328 3.328 0 01-3.344 3.353c-1.816 0-3.344-1.533-3.344-3.353a3.327 3.327 0 013.344-3.352 3.328 3.328 0 013.344 3.352zm45.096 0a3.327 3.327 0 01-3.344 3.353c-1.911 0-3.344-1.533-3.344-3.353a3.328 3.328 0 013.344-3.352c1.816-.096 3.344 1.436 3.344 3.352zm45.097 0a3.328 3.328 0 01-3.344 3.353c-1.911 0-3.344-1.533-3.344-3.353a3.327 3.327 0 013.344-3.352c1.911-.096 3.344 1.436 3.344 3.352zm45.193 0a3.328 3.328 0 01-3.344 3.353c-1.816 0-3.344-1.533-3.344-3.353a3.327 3.327 0 013.344-3.352 3.328 3.328 0 013.344 3.352zm45.096 0a3.328 3.328 0 01-3.344 3.353c-1.911 0-3.344-1.533-3.344-3.353a3.328 3.328 0 013.344-3.352c1.815-.096 3.344 1.436 3.344 3.352zm45.192 0a3.327 3.327 0 01-3.344 3.353c-1.911 0-3.344-1.533-3.344-3.353a3.328 3.328 0 013.344-3.352c1.816-.096 3.344 1.436 3.344 3.352zm45.097 0a3.328 3.328 0 01-3.344 3.353c-1.911 0-3.344-1.533-3.344-3.353a3.328 3.328 0 013.344-3.352c1.815-.096 3.344 1.436 3.344 3.352zm45.192 0a3.327 3.327 0 01-3.344 3.353c-1.911 0-3.344-1.533-3.344-3.353a3.328 3.328 0 013.344-3.352c1.816-.096 3.344 1.436 3.344 3.352zm45.097 0a3.328 3.328 0 01-3.344 3.353c-1.911 0-3.344-1.533-3.344-3.353a3.328 3.328 0 013.344-3.352c1.815-.096 3.344 1.436 3.344 3.352zm-451.349 0a3.328 3.328 0 01-3.344 3.353c-1.816 0-3.344-1.533-3.344-3.353a3.327 3.327 0 013.344-3.352 3.328 3.328 0 013.344 3.352zM31.073 68.476a3.328 3.328 0 01-3.344 3.353c-1.911 0-3.345-1.533-3.345-3.353a3.328 3.328 0 013.345-3.352c1.815 0 3.344 1.532 3.344 3.352zm45.097 0a3.328 3.328 0 01-3.345 3.353c-1.91 0-3.344-1.533-3.344-3.353a3.328 3.328 0 013.344-3.352c1.816 0 3.344 1.532 3.344 3.352zm90.288 0a3.328 3.328 0 01-3.344 3.353c-1.911 0-3.344-1.533-3.344-3.353a3.328 3.328 0 013.344-3.352c1.815 0 3.344 1.532 3.344 3.352zm45.193 0a3.328 3.328 0 01-3.344 3.353c-1.816 0-3.344-1.533-3.344-3.353a3.327 3.327 0 013.344-3.352c1.815 0 3.344 1.532 3.344 3.352zm180.482 0a3.328 3.328 0 01-3.344 3.353c-1.911 0-3.344-1.533-3.344-3.353a3.328 3.328 0 013.344-3.352c1.815 0 3.344 1.532 3.344 3.352zm45.192 0a3.327 3.327 0 01-3.344 3.353c-1.911 0-3.344-1.533-3.344-3.353a3.328 3.328 0 013.344-3.352c1.816 0 3.344 1.532 3.344 3.352zm45.097 0a3.328 3.328 0 01-3.344 3.353c-1.911 0-3.344-1.533-3.344-3.353a3.328 3.328 0 013.344-3.352c1.815 0 3.344 1.532 3.344 3.352zm45.192 0a3.327 3.327 0 01-3.344 3.353c-1.911 0-3.344-1.533-3.344-3.353a3.328 3.328 0 013.344-3.352c1.816 0 3.344 1.532 3.344 3.352zm45.097 0a3.328 3.328 0 01-3.344 3.353c-1.911 0-3.344-1.533-3.344-3.353a3.328 3.328 0 013.344-3.352c1.815 0 3.344 1.532 3.344 3.352zm-451.349 0a3.328 3.328 0 01-3.344 3.353c-1.816 0-3.344-1.533-3.344-3.353a3.327 3.327 0 013.344-3.352c1.815 0 3.344 1.532 3.344 3.352zM53.62 56.502a3.327 3.327 0 01-3.343 3.353c-1.816 0-3.344-1.533-3.344-3.353a3.328 3.328 0 013.344-3.352 3.328 3.328 0 013.344 3.352zm45.098 0a3.327 3.327 0 01-3.344 3.353c-1.911 0-3.344-1.533-3.344-3.353a3.328 3.328 0 013.344-3.352c1.91 0 3.344 1.436 3.344 3.352zm90.288 0a3.327 3.327 0 01-3.344 3.353c-1.815 0-3.344-1.533-3.344-3.353a3.328 3.328 0 013.344-3.352 3.327 3.327 0 013.344 3.352zm45.193 0a3.328 3.328 0 01-3.344 3.353c-1.911 0-3.344-1.533-3.344-3.353a3.327 3.327 0 013.344-3.352 3.328 3.328 0 013.344 3.352zm135.386 0a3.328 3.328 0 01-3.344 3.353c-1.911 0-3.345-1.533-3.345-3.353a3.328 3.328 0 013.345-3.352 3.328 3.328 0 013.344 3.352zm45.096 0a3.327 3.327 0 01-3.344 3.353c-1.815 0-3.344-1.533-3.344-3.353a3.328 3.328 0 013.344-3.352 3.327 3.327 0 013.344 3.352zm45.192 0a3.327 3.327 0 01-3.344 3.353c-1.911 0-3.344-1.533-3.344-3.353a3.328 3.328 0 013.344-3.352 3.327 3.327 0 013.344 3.352zm45.098 0a3.328 3.328 0 01-3.345 3.353c-1.91 0-3.344-1.533-3.344-3.353a3.328 3.328 0 013.344-3.352c1.911 0 3.345 1.436 3.345 3.352zm45.192 0a3.328 3.328 0 01-3.344 3.353c-1.911 0-3.344-1.533-3.344-3.353a3.327 3.327 0 013.344-3.352 3.328 3.328 0 013.344 3.352zm-406.253 0a3.328 3.328 0 01-3.344 3.353c-1.911 0-3.344-1.533-3.344-3.353a3.327 3.327 0 013.344-3.352 3.328 3.328 0 013.344 3.352zM31.073 44.528a3.328 3.328 0 01-3.344 3.353c-1.911 0-3.345-1.533-3.345-3.353a3.327 3.327 0 013.345-3.352c1.815-.096 3.344 1.436 3.344 3.352zm45.097 0a3.328 3.328 0 01-3.345 3.353c-1.91 0-3.344-1.533-3.344-3.353a3.327 3.327 0 013.344-3.352c1.816-.096 3.344 1.436 3.344 3.352zm90.288 0a3.328 3.328 0 01-3.344 3.353c-1.911 0-3.344-1.533-3.344-3.353a3.328 3.328 0 013.344-3.352c1.815-.096 3.344 1.436 3.344 3.352zm45.193 0a3.328 3.328 0 01-3.344 3.353c-1.816 0-3.344-1.533-3.344-3.353a3.327 3.327 0 013.344-3.353 3.328 3.328 0 013.344 3.353zm45.096 0a3.327 3.327 0 01-3.344 3.353c-1.911 0-3.344-1.533-3.344-3.353a3.328 3.328 0 013.344-3.352c1.816-.096 3.344 1.436 3.344 3.352zm90.29 0a3.328 3.328 0 01-3.344 3.353c-1.816 0-3.344-1.533-3.344-3.353a3.327 3.327 0 013.344-3.353 3.328 3.328 0 013.344 3.353zm45.096 0a3.328 3.328 0 01-3.344 3.353c-1.911 0-3.344-1.533-3.344-3.353a3.328 3.328 0 013.344-3.352c1.815-.096 3.344 1.436 3.344 3.352zm45.192 0a3.327 3.327 0 01-3.344 3.353c-1.911 0-3.344-1.533-3.344-3.353a3.328 3.328 0 013.344-3.352c1.816-.096 3.344 1.436 3.344 3.352zm45.097 0a3.328 3.328 0 01-3.344 3.353c-1.911 0-3.344-1.533-3.344-3.353a3.328 3.328 0 013.344-3.352c1.815-.096 3.344 1.436 3.344 3.352zm45.192 0a3.327 3.327 0 01-3.344 3.353c-1.911 0-3.344-1.533-3.344-3.353a3.328 3.328 0 013.344-3.352c1.816-.096 3.344 1.436 3.344 3.352zm45.097 0a3.328 3.328 0 01-3.344 3.353c-1.911 0-3.344-1.533-3.344-3.353a3.328 3.328 0 013.344-3.352c1.815-.096 3.344 1.436 3.344 3.352zm-451.349 0a3.328 3.328 0 01-3.344 3.353c-1.816 0-3.344-1.533-3.344-3.353a3.327 3.327 0 013.344-3.353 3.328 3.328 0 013.344 3.353zM53.62 32.458a3.328 3.328 0 01-3.343 3.353c-1.816 0-3.344-1.533-3.344-3.353a3.327 3.327 0 013.344-3.352c1.815 0 3.344 1.532 3.344 3.352zm45.098 0a3.328 3.328 0 01-3.344 3.353c-1.911 0-3.344-1.533-3.344-3.353a3.327 3.327 0 013.344-3.352c1.91 0 3.344 1.532 3.344 3.352zm90.288 0a3.327 3.327 0 01-3.344 3.353c-1.815 0-3.344-1.533-3.344-3.353a3.328 3.328 0 013.344-3.352c1.816 0 3.344 1.532 3.344 3.352zm45.193 0a3.328 3.328 0 01-3.344 3.353c-1.911 0-3.344-1.533-3.344-3.353a3.327 3.327 0 013.344-3.352c1.815 0 3.344 1.532 3.344 3.352zm45.097 0a3.328 3.328 0 01-3.344 3.353c-1.816 0-3.344-1.533-3.344-3.353a3.327 3.327 0 013.344-3.352c1.815 0 3.344 1.532 3.344 3.352zm45.192 0a3.328 3.328 0 01-3.344 3.353c-1.911 0-3.344-1.533-3.344-3.353a3.328 3.328 0 013.344-3.352c1.815 0 3.344 1.532 3.344 3.352zm45.097 0a3.328 3.328 0 01-3.344 3.353c-1.911 0-3.345-1.533-3.345-3.353a3.328 3.328 0 013.345-3.352c1.815 0 3.344 1.532 3.344 3.352zm45.096 0a3.327 3.327 0 01-3.344 3.353c-1.815 0-3.344-1.533-3.344-3.353a3.328 3.328 0 013.344-3.352c1.816 0 3.344 1.532 3.344 3.352zm45.192 0a3.327 3.327 0 01-3.344 3.353c-1.911 0-3.344-1.533-3.344-3.353a3.328 3.328 0 013.344-3.352c1.816 0 3.344 1.532 3.344 3.352zm45.098 0a3.328 3.328 0 01-3.345 3.353c-1.91 0-3.344-1.533-3.344-3.353a3.328 3.328 0 013.344-3.352c1.911 0 3.345 1.532 3.345 3.352zm45.192 0a3.328 3.328 0 01-3.344 3.353c-1.911 0-3.344-1.533-3.344-3.353a3.327 3.327 0 013.344-3.352c1.815 0 3.344 1.532 3.344 3.352zm-406.253 0a3.328 3.328 0 01-3.344 3.353c-1.911 0-3.344-1.533-3.344-3.353a3.327 3.327 0 013.344-3.352c1.815 0 3.344 1.532 3.344 3.352zM31.073 116.564a3.328 3.328 0 01-3.344 3.353c-1.911 0-3.345-1.533-3.345-3.353a3.328 3.328 0 013.345-3.353 3.328 3.328 0 013.344 3.353zm45.097 0a3.328 3.328 0 01-3.345 3.353c-1.91 0-3.344-1.533-3.344-3.353a3.328 3.328 0 013.344-3.353 3.328 3.328 0 013.344 3.353zm90.288 0a3.328 3.328 0 01-3.344 3.353c-1.911 0-3.344-1.533-3.344-3.353a3.328 3.328 0 013.344-3.353 3.328 3.328 0 013.344 3.353zm135.386 0a3.328 3.328 0 01-3.344 3.353c-1.911 0-3.344-1.533-3.344-3.353a3.327 3.327 0 013.344-3.353c1.911 0 3.344 1.437 3.344 3.353zm135.481 0a3.327 3.327 0 01-3.344 3.353c-1.911 0-3.344-1.533-3.344-3.353a3.328 3.328 0 013.344-3.353 3.327 3.327 0 013.344 3.353zm45.097 0a3.328 3.328 0 01-3.344 3.353c-1.911 0-3.344-1.533-3.344-3.353a3.328 3.328 0 013.344-3.353 3.328 3.328 0 013.344 3.353zm45.192 0a3.327 3.327 0 01-3.344 3.353c-1.911 0-3.344-1.533-3.344-3.353a3.328 3.328 0 013.344-3.353 3.327 3.327 0 013.344 3.353zm45.097 0a3.328 3.328 0 01-3.344 3.353c-1.911 0-3.344-1.533-3.344-3.353a3.328 3.328 0 013.344-3.353 3.328 3.328 0 013.344 3.353zm-451.349 0a3.328 3.328 0 01-3.344 3.353c-1.816 0-3.344-1.533-3.344-3.353a3.327 3.327 0 013.344-3.353 3.328 3.328 0 013.344 3.353zM53.62 104.59a3.328 3.328 0 01-3.343 3.353c-1.816 0-3.344-1.533-3.344-3.353a3.328 3.328 0 013.344-3.353 3.328 3.328 0 013.344 3.353zm45.098 0a3.328 3.328 0 01-3.344 3.353c-1.911 0-3.344-1.533-3.344-3.353a3.328 3.328 0 013.344-3.353c1.91-.096 3.344 1.437 3.344 3.353zm361.155 0a3.327 3.327 0 01-3.344 3.353c-1.911 0-3.344-1.533-3.344-3.353a3.328 3.328 0 013.344-3.353c1.816-.096 3.344 1.437 3.344 3.353zm45.098 0a3.328 3.328 0 01-3.345 3.353c-1.91 0-3.344-1.533-3.344-3.353a3.328 3.328 0 013.344-3.353c1.911-.096 3.345 1.437 3.345 3.353zm45.192 0a3.328 3.328 0 01-3.344 3.353c-1.911 0-3.344-1.533-3.344-3.353a3.327 3.327 0 013.344-3.353c1.815-.096 3.344 1.437 3.344 3.353zm-406.253 0a3.328 3.328 0 01-3.344 3.353c-1.911 0-3.344-1.533-3.344-3.353a3.327 3.327 0 013.344-3.353c1.815-.096 3.344 1.437 3.344 3.353zM31.073 92.52a3.328 3.328 0 01-3.344 3.353c-1.911 0-3.345-1.533-3.345-3.353a3.327 3.327 0 013.345-3.353c1.815 0 3.344 1.533 3.344 3.353zm45.097 0a3.328 3.328 0 01-3.345 3.353c-1.91 0-3.344-1.533-3.344-3.353a3.327 3.327 0 013.344-3.353c1.816 0 3.344 1.533 3.344 3.353zm90.288 0a3.328 3.328 0 01-3.344 3.353c-1.911 0-3.344-1.533-3.344-3.353a3.328 3.328 0 013.344-3.353c1.815 0 3.344 1.533 3.344 3.353zm270.867 0a3.327 3.327 0 01-3.344 3.353c-1.911 0-3.344-1.533-3.344-3.353a3.328 3.328 0 013.344-3.353c1.816 0 3.344 1.533 3.344 3.353zm45.097 0a3.328 3.328 0 01-3.344 3.353c-1.911 0-3.344-1.533-3.344-3.353a3.328 3.328 0 013.344-3.353c1.815 0 3.344 1.533 3.344 3.353zm45.192 0a3.327 3.327 0 01-3.344 3.353c-1.911 0-3.344-1.533-3.344-3.353a3.328 3.328 0 013.344-3.353c1.816 0 3.344 1.533 3.344 3.353zm45.097 0a3.328 3.328 0 01-3.344 3.353c-1.911 0-3.344-1.533-3.344-3.353a3.328 3.328 0 013.344-3.353c1.815 0 3.344 1.533 3.344 3.353zm-451.35 0a3.327 3.327 0 01-3.344 3.353c-1.815 0-3.439-1.437-3.439-3.353a3.328 3.328 0 013.344-3.353c1.815 0 3.439 1.533 3.439 3.353zM53.62 80.546a3.328 3.328 0 01-3.343 3.353c-1.816 0-3.344-1.533-3.344-3.353 0-1.82 1.528-3.353 3.344-3.353a3.327 3.327 0 013.344 3.353zm45.098 0a3.328 3.328 0 01-3.344 3.353c-1.911 0-3.344-1.533-3.344-3.353 0-1.82 1.528-3.353 3.344-3.353 1.91-.095 3.344 1.437 3.344 3.353zm90.288 0a3.327 3.327 0 01-3.344 3.353c-1.815 0-3.344-1.533-3.344-3.353 0-1.82 1.529-3.353 3.344-3.353a3.327 3.327 0 013.344 3.353zm225.675 0a3.327 3.327 0 01-3.344 3.353c-1.815 0-3.344-1.533-3.344-3.353 0-1.82 1.529-3.353 3.344-3.353a3.327 3.327 0 013.344 3.353zm45.192 0a3.327 3.327 0 01-3.344 3.353c-1.911 0-3.344-1.533-3.344-3.353 0-1.82 1.529-3.353 3.344-3.353 1.816-.095 3.344 1.437 3.344 3.353zm45.098 0a3.328 3.328 0 01-3.345 3.353c-1.91 0-3.344-1.533-3.344-3.353 0-1.82 1.529-3.353 3.344-3.353 1.911-.095 3.345 1.437 3.345 3.353zm45.192 0a3.328 3.328 0 01-3.344 3.353c-1.911 0-3.344-1.533-3.344-3.353 0-1.82 1.528-3.353 3.344-3.353 1.815-.095 3.344 1.437 3.344 3.353zm-406.253 0a3.328 3.328 0 01-3.344 3.353c-1.911 0-3.344-1.533-3.344-3.353 0-1.82 1.528-3.353 3.344-3.353 1.815-.095 3.344 1.437 3.344 3.353zM31.073 212.644a3.327 3.327 0 01-3.344 3.352c-1.911 0-3.345-1.532-3.345-3.352a3.328 3.328 0 013.345-3.353 3.328 3.328 0 013.344 3.353zm45.097 0a3.327 3.327 0 01-3.345 3.352c-1.91 0-3.344-1.532-3.344-3.352a3.328 3.328 0 013.344-3.353 3.328 3.328 0 013.344 3.353zm90.288 0a3.327 3.327 0 01-3.344 3.352c-1.911 0-3.344-1.532-3.344-3.352a3.328 3.328 0 013.344-3.353 3.328 3.328 0 013.344 3.353zm270.867 0a3.326 3.326 0 01-3.344 3.352c-1.911 0-3.344-1.532-3.344-3.352a3.328 3.328 0 013.344-3.353 3.327 3.327 0 013.344 3.353zm45.097 0a3.327 3.327 0 01-3.344 3.352c-1.911 0-3.344-1.532-3.344-3.352a3.328 3.328 0 013.344-3.353 3.328 3.328 0 013.344 3.353zm45.192 0a3.326 3.326 0 01-3.344 3.352c-1.911 0-3.344-1.532-3.344-3.352a3.328 3.328 0 013.344-3.353 3.327 3.327 0 013.344 3.353zm45.097 0a3.327 3.327 0 01-3.344 3.352c-1.911 0-3.344-1.532-3.344-3.352a3.328 3.328 0 013.344-3.353 3.328 3.328 0 013.344 3.353zm-451.349 0a3.327 3.327 0 01-3.344 3.352c-1.816 0-3.344-1.532-3.344-3.352a3.327 3.327 0 013.344-3.353 3.328 3.328 0 013.344 3.353zm-90.289 48.087a3.328 3.328 0 01-3.344 3.353c-1.911 0-3.345-1.533-3.345-3.353 0-1.82 1.53-3.352 3.345-3.352 1.815-.096 3.344 1.437 3.344 3.352zm45.097 0a3.328 3.328 0 01-3.345 3.353c-1.91 0-3.344-1.533-3.344-3.353 0-1.82 1.529-3.352 3.344-3.352 1.816-.096 3.344 1.437 3.344 3.352zm90.288 0a3.328 3.328 0 01-3.344 3.353c-1.911 0-3.344-1.533-3.344-3.353 0-1.82 1.529-3.352 3.344-3.352 1.815-.096 3.344 1.437 3.344 3.352zm45.193 0a3.328 3.328 0 01-3.344 3.353c-1.816 0-3.344-1.533-3.344-3.353 0-1.82 1.528-3.352 3.344-3.352a3.328 3.328 0 013.344 3.352zm180.482 0a3.328 3.328 0 01-3.344 3.353c-1.911 0-3.344-1.533-3.344-3.353 0-1.82 1.529-3.352 3.344-3.352 1.815-.096 3.344 1.437 3.344 3.352zm45.192 0a3.327 3.327 0 01-3.344 3.353c-1.911 0-3.344-1.533-3.344-3.353 0-1.82 1.529-3.352 3.344-3.352 1.816-.096 3.344 1.437 3.344 3.352zm45.097 0a3.328 3.328 0 01-3.344 3.353c-1.911 0-3.344-1.533-3.344-3.353 0-1.82 1.529-3.352 3.344-3.352 1.815-.096 3.344 1.437 3.344 3.352zm45.192 0a3.327 3.327 0 01-3.344 3.353c-1.911 0-3.344-1.533-3.344-3.353 0-1.82 1.529-3.352 3.344-3.352 1.816-.096 3.344 1.437 3.344 3.352zm45.097 0a3.328 3.328 0 01-3.344 3.353c-1.911 0-3.344-1.533-3.344-3.353 0-1.82 1.529-3.352 3.344-3.352 1.815-.096 3.344 1.437 3.344 3.352zm-451.349 0a3.328 3.328 0 01-3.344 3.353c-1.816 0-3.344-1.533-3.344-3.353 0-1.82 1.528-3.352 3.344-3.352a3.328 3.328 0 013.344 3.352zM53.62 248.662a3.327 3.327 0 01-3.343 3.352c-1.816 0-3.344-1.532-3.344-3.352a3.328 3.328 0 013.344-3.353c1.815 0 3.344 1.533 3.344 3.353zm45.098 0a3.327 3.327 0 01-3.344 3.352c-1.911 0-3.344-1.532-3.344-3.352a3.328 3.328 0 013.344-3.353c1.91 0 3.344 1.533 3.344 3.353zm90.288 0a3.327 3.327 0 01-3.344 3.352c-1.815 0-3.344-1.532-3.344-3.352a3.328 3.328 0 013.344-3.353c1.816 0 3.344 1.533 3.344 3.353zm225.675 0a3.327 3.327 0 01-3.344 3.352c-1.815 0-3.344-1.532-3.344-3.352a3.328 3.328 0 013.344-3.353c1.816 0 3.344 1.533 3.344 3.353zm45.192 0a3.327 3.327 0 01-3.344 3.352c-1.911 0-3.344-1.532-3.344-3.352a3.328 3.328 0 013.344-3.353c1.816 0 3.344 1.533 3.344 3.353zm45.098 0a3.328 3.328 0 01-3.345 3.352c-1.91 0-3.344-1.532-3.344-3.352a3.328 3.328 0 013.344-3.353c1.911 0 3.345 1.533 3.345 3.353zm45.192 0a3.328 3.328 0 01-3.344 3.352c-1.911 0-3.344-1.532-3.344-3.352a3.327 3.327 0 013.344-3.353c1.815 0 3.344 1.533 3.344 3.353zm-406.253 0a3.328 3.328 0 01-3.344 3.352c-1.911 0-3.344-1.532-3.344-3.352a3.327 3.327 0 013.344-3.353c1.815 0 3.344 1.533 3.344 3.353zM31.073 284.68a3.327 3.327 0 01-3.344 3.352c-1.911 0-3.345-1.532-3.345-3.352 0-1.821 1.53-3.353 3.345-3.353 1.815 0 3.344 1.532 3.344 3.353zm45.097 0a3.327 3.327 0 01-3.345 3.352c-1.91 0-3.344-1.532-3.344-3.352 0-1.821 1.529-3.353 3.344-3.353 1.816 0 3.344 1.532 3.344 3.353zm90.288 0a3.328 3.328 0 01-3.344 3.352c-1.911 0-3.344-1.532-3.344-3.352 0-1.821 1.529-3.353 3.344-3.353s3.344 1.532 3.344 3.353zm45.193 0a3.328 3.328 0 01-3.344 3.352c-1.816 0-3.344-1.532-3.344-3.352 0-1.821 1.528-3.353 3.344-3.353 1.815 0 3.344 1.532 3.344 3.353zm45.096 0a3.327 3.327 0 01-3.344 3.352c-1.911 0-3.344-1.532-3.344-3.352 0-1.821 1.529-3.353 3.344-3.353 1.816 0 3.344 1.532 3.344 3.353zm90.29 0a3.328 3.328 0 01-3.344 3.352c-1.816 0-3.344-1.532-3.344-3.352 0-1.821 1.528-3.353 3.344-3.353 1.815 0 3.344 1.532 3.344 3.353zm45.096 0a3.328 3.328 0 01-3.344 3.352c-1.911 0-3.344-1.532-3.344-3.352 0-1.821 1.529-3.353 3.344-3.353s3.344 1.532 3.344 3.353zm45.192 0a3.327 3.327 0 01-3.344 3.352c-1.911 0-3.344-1.532-3.344-3.352 0-1.821 1.529-3.353 3.344-3.353 1.816 0 3.344 1.532 3.344 3.353zm45.097 0a3.328 3.328 0 01-3.344 3.352c-1.911 0-3.344-1.532-3.344-3.352 0-1.821 1.529-3.353 3.344-3.353s3.344 1.532 3.344 3.353zm45.192 0a3.327 3.327 0 01-3.344 3.352c-1.911 0-3.344-1.532-3.344-3.352 0-1.821 1.529-3.353 3.344-3.353 1.816 0 3.344 1.532 3.344 3.353zm45.097 0a3.328 3.328 0 01-3.344 3.352c-1.911 0-3.344-1.532-3.344-3.352 0-1.821 1.529-3.353 3.344-3.353s3.344 1.532 3.344 3.353zm-451.349 0a3.328 3.328 0 01-3.344 3.352c-1.816 0-3.344-1.532-3.344-3.352 0-1.821 1.528-3.353 3.344-3.353 1.815 0 3.344 1.532 3.344 3.353zM53.62 272.705a3.328 3.328 0 01-3.343 3.353c-1.816 0-3.344-1.532-3.344-3.353 0-1.82 1.528-3.352 3.344-3.352a3.327 3.327 0 013.344 3.352zm45.098 0a3.328 3.328 0 01-3.344 3.353c-1.911 0-3.344-1.532-3.344-3.353 0-1.82 1.528-3.352 3.344-3.352 1.91-.096 3.344 1.437 3.344 3.352zm90.288 0a3.327 3.327 0 01-3.344 3.353c-1.815 0-3.344-1.532-3.344-3.353 0-1.82 1.529-3.352 3.344-3.352a3.327 3.327 0 013.344 3.352zm45.193 0a3.328 3.328 0 01-3.344 3.353c-1.911 0-3.344-1.532-3.344-3.353 0-1.82 1.528-3.352 3.344-3.352 1.815-.096 3.344 1.437 3.344 3.352zm135.386 0a3.328 3.328 0 01-3.344 3.353c-1.911 0-3.345-1.532-3.345-3.353 0-1.82 1.529-3.352 3.345-3.352 1.815-.096 3.344 1.437 3.344 3.352zm45.096 0a3.327 3.327 0 01-3.344 3.353c-1.815 0-3.344-1.532-3.344-3.353 0-1.82 1.529-3.352 3.344-3.352a3.327 3.327 0 013.344 3.352zm45.192 0a3.327 3.327 0 01-3.344 3.353c-1.911 0-3.344-1.532-3.344-3.353 0-1.82 1.529-3.352 3.344-3.352 1.816-.096 3.344 1.437 3.344 3.352zm45.098 0a3.328 3.328 0 01-3.345 3.353c-1.91 0-3.344-1.532-3.344-3.353 0-1.82 1.529-3.352 3.344-3.352 1.911-.096 3.345 1.437 3.345 3.352zm45.192 0a3.328 3.328 0 01-3.344 3.353c-1.911 0-3.344-1.532-3.344-3.353 0-1.82 1.528-3.352 3.344-3.352 1.815-.096 3.344 1.437 3.344 3.352zm-406.253 0a3.328 3.328 0 01-3.344 3.353c-1.911 0-3.344-1.532-3.344-3.353 0-1.82 1.528-3.352 3.344-3.352 1.815-.096 3.344 1.437 3.344 3.352zm-90.29 24.428a3.327 3.327 0 01-3.343 3.352c-1.816 0-3.344-1.532-3.344-3.352a3.328 3.328 0 013.344-3.353c1.815 0 3.344 1.532 3.344 3.353zm45.098 0a3.327 3.327 0 01-3.344 3.352c-1.911 0-3.344-1.532-3.344-3.352a3.328 3.328 0 013.344-3.353c1.91 0 3.344 1.532 3.344 3.353zm90.288 0a3.327 3.327 0 01-3.344 3.352c-1.815 0-3.344-1.532-3.344-3.352a3.328 3.328 0 013.344-3.353c1.816 0 3.344 1.532 3.344 3.353zm45.193 0a3.328 3.328 0 01-3.344 3.352c-1.911 0-3.344-1.532-3.344-3.352a3.327 3.327 0 013.344-3.353c1.815 0 3.344 1.532 3.344 3.353zm45.097 0a3.328 3.328 0 01-3.344 3.352c-1.816 0-3.344-1.532-3.344-3.352a3.327 3.327 0 013.344-3.353c1.815 0 3.344 1.532 3.344 3.353zm45.192 0a3.328 3.328 0 01-3.344 3.352c-1.911 0-3.344-1.532-3.344-3.352a3.328 3.328 0 013.344-3.353c1.815 0 3.344 1.532 3.344 3.353zm45.097 0a3.328 3.328 0 01-3.344 3.352c-1.911 0-3.345-1.532-3.345-3.352a3.328 3.328 0 013.345-3.353c1.815 0 3.344 1.532 3.344 3.353zm45.096 0a3.327 3.327 0 01-3.344 3.352c-1.815 0-3.344-1.532-3.344-3.352a3.328 3.328 0 013.344-3.353c1.816 0 3.344 1.532 3.344 3.353zm45.192 0a3.327 3.327 0 01-3.344 3.352c-1.911 0-3.344-1.532-3.344-3.352a3.328 3.328 0 013.344-3.353c1.816 0 3.344 1.532 3.344 3.353zm45.098 0a3.328 3.328 0 01-3.345 3.352c-1.91 0-3.344-1.532-3.344-3.352a3.328 3.328 0 013.344-3.353c1.911 0 3.345 1.532 3.345 3.353zm45.192 0a3.328 3.328 0 01-3.344 3.352c-1.911 0-3.344-1.532-3.344-3.352a3.327 3.327 0 013.344-3.353c1.815 0 3.344 1.532 3.344 3.353zm-406.253 0a3.328 3.328 0 01-3.344 3.352c-1.911 0-3.344-1.532-3.344-3.352a3.327 3.327 0 013.344-3.353c1.815 0 3.344 1.532 3.344 3.353zM31.073 236.688a3.327 3.327 0 01-3.344 3.352c-1.911 0-3.345-1.532-3.345-3.352a3.328 3.328 0 013.345-3.353c1.815-.096 3.344 1.437 3.344 3.353zm45.097 0a3.327 3.327 0 01-3.345 3.352c-1.91 0-3.344-1.532-3.344-3.352a3.328 3.328 0 013.344-3.353c1.816-.096 3.344 1.437 3.344 3.353zm90.288 0a3.328 3.328 0 01-3.344 3.352c-1.911 0-3.344-1.532-3.344-3.352a3.328 3.328 0 013.344-3.353c1.815-.096 3.344 1.437 3.344 3.353zm270.867 0a3.327 3.327 0 01-3.344 3.352c-1.911 0-3.344-1.532-3.344-3.352a3.328 3.328 0 013.344-3.353c1.816-.096 3.344 1.437 3.344 3.353zm45.097 0a3.328 3.328 0 01-3.344 3.352c-1.911 0-3.344-1.532-3.344-3.352a3.328 3.328 0 013.344-3.353c1.815-.096 3.344 1.437 3.344 3.353zm45.192 0a3.327 3.327 0 01-3.344 3.352c-1.911 0-3.344-1.532-3.344-3.352a3.328 3.328 0 013.344-3.353c1.816-.096 3.344 1.437 3.344 3.353zm45.097 0a3.328 3.328 0 01-3.344 3.352c-1.911 0-3.344-1.532-3.344-3.352a3.328 3.328 0 013.344-3.353c1.815-.096 3.344 1.437 3.344 3.353zm-451.349 0a3.328 3.328 0 01-3.344 3.352c-1.816 0-3.344-1.532-3.344-3.352a3.327 3.327 0 013.344-3.353 3.328 3.328 0 013.344 3.353zm-67.742-12.07a3.327 3.327 0 01-3.343 3.352c-1.816 0-3.344-1.532-3.344-3.352a3.328 3.328 0 013.344-3.353c1.815 0 3.344 1.533 3.344 3.353zm45.098 0a3.327 3.327 0 01-3.344 3.352c-1.911 0-3.344-1.532-3.344-3.352a3.328 3.328 0 013.344-3.353c1.91 0 3.344 1.533 3.344 3.353zm361.155 0a3.326 3.326 0 01-3.344 3.352c-1.911 0-3.344-1.532-3.344-3.352a3.328 3.328 0 013.344-3.353c1.816 0 3.344 1.533 3.344 3.353zm45.098 0a3.327 3.327 0 01-3.345 3.352c-1.91 0-3.344-1.532-3.344-3.352a3.328 3.328 0 013.344-3.353c1.911 0 3.345 1.533 3.345 3.353zm45.192 0a3.327 3.327 0 01-3.344 3.352c-1.911 0-3.344-1.532-3.344-3.352a3.327 3.327 0 013.344-3.353c1.815 0 3.344 1.533 3.344 3.353zm-406.253 0a3.327 3.327 0 01-3.344 3.352c-1.911 0-3.344-1.532-3.344-3.352a3.327 3.327 0 013.344-3.353c1.815 0 3.344 1.533 3.344 3.353zM31.073 164.556a3.328 3.328 0 01-3.344 3.353c-1.911 0-3.345-1.533-3.345-3.353a3.328 3.328 0 013.345-3.353c1.815 0 3.344 1.533 3.344 3.353zm45.097 0a3.328 3.328 0 01-3.345 3.353c-1.91 0-3.344-1.533-3.344-3.353a3.328 3.328 0 013.344-3.353c1.816 0 3.344 1.533 3.344 3.353zm90.288 0a3.328 3.328 0 01-3.344 3.353c-1.911 0-3.344-1.533-3.344-3.353a3.328 3.328 0 013.344-3.353c1.815 0 3.344 1.533 3.344 3.353zm180.579 0a3.328 3.328 0 01-3.344 3.353c-1.816 0-3.344-1.533-3.344-3.353a3.327 3.327 0 013.344-3.353c1.815 0 3.344 1.533 3.344 3.353zm45.096 0a3.328 3.328 0 01-3.344 3.353c-1.911 0-3.344-1.533-3.344-3.353a3.328 3.328 0 013.344-3.353c1.815 0 3.344 1.533 3.344 3.353zm45.192 0a3.327 3.327 0 01-3.344 3.353c-1.911 0-3.344-1.533-3.344-3.353a3.328 3.328 0 013.344-3.353c1.816 0 3.344 1.533 3.344 3.353zm45.097 0a3.328 3.328 0 01-3.344 3.353c-1.911 0-3.344-1.533-3.344-3.353a3.328 3.328 0 013.344-3.353c1.815 0 3.344 1.533 3.344 3.353zm45.192 0a3.327 3.327 0 01-3.344 3.353c-1.911 0-3.344-1.533-3.344-3.353a3.328 3.328 0 013.344-3.353c1.816 0 3.344 1.533 3.344 3.353zm45.097 0a3.328 3.328 0 01-3.344 3.353c-1.911 0-3.344-1.533-3.344-3.353a3.328 3.328 0 013.344-3.353c1.815 0 3.344 1.533 3.344 3.353zm-451.349 0a3.328 3.328 0 01-3.344 3.353c-1.816 0-3.344-1.533-3.344-3.353a3.327 3.327 0 013.344-3.353c1.815 0 3.344 1.533 3.344 3.353zM31.073 188.6a3.328 3.328 0 01-3.344 3.353c-1.911 0-3.345-1.533-3.345-3.353a3.328 3.328 0 013.345-3.353c1.815 0 3.344 1.533 3.344 3.353zm45.097 0a3.328 3.328 0 01-3.345 3.353c-1.91 0-3.344-1.533-3.344-3.353a3.328 3.328 0 013.344-3.353c1.816 0 3.344 1.533 3.344 3.353zm90.288 0a3.328 3.328 0 01-3.344 3.353c-1.911 0-3.344-1.533-3.344-3.353a3.328 3.328 0 013.344-3.353c1.815 0 3.344 1.533 3.344 3.353zm90.289 0a3.327 3.327 0 01-3.344 3.353c-1.911 0-3.344-1.533-3.344-3.353a3.328 3.328 0 013.344-3.353c1.816 0 3.344 1.533 3.344 3.353zm90.29 0a3.328 3.328 0 01-3.344 3.353c-1.816 0-3.344-1.533-3.344-3.353a3.327 3.327 0 013.344-3.353c1.815 0 3.344 1.533 3.344 3.353zm90.288 0a3.327 3.327 0 01-3.344 3.353c-1.911 0-3.344-1.533-3.344-3.353a3.328 3.328 0 013.344-3.353c1.816 0 3.344 1.533 3.344 3.353zm45.097 0a3.328 3.328 0 01-3.344 3.353c-1.911 0-3.344-1.533-3.344-3.353a3.328 3.328 0 013.344-3.353c1.815 0 3.344 1.533 3.344 3.353zm45.192 0a3.327 3.327 0 01-3.344 3.353c-1.911 0-3.344-1.533-3.344-3.353a3.328 3.328 0 013.344-3.353c1.816 0 3.344 1.533 3.344 3.353zm45.097 0a3.328 3.328 0 01-3.344 3.353c-1.911 0-3.344-1.533-3.344-3.353a3.328 3.328 0 013.344-3.353c1.815 0 3.344 1.533 3.344 3.353zm-451.349 0a3.328 3.328 0 01-3.344 3.353c-1.816 0-3.344-1.533-3.344-3.353a3.327 3.327 0 013.344-3.353c1.815 0 3.344 1.533 3.344 3.353zM53.62 152.582a3.328 3.328 0 01-3.343 3.353c-1.816 0-3.344-1.533-3.344-3.353a3.328 3.328 0 013.344-3.353c1.815 0 3.344 1.533 3.344 3.353zm45.098 0a3.328 3.328 0 01-3.344 3.353c-1.911 0-3.344-1.533-3.344-3.353a3.328 3.328 0 013.344-3.353c1.91 0 3.344 1.533 3.344 3.353zm270.867 0a3.328 3.328 0 01-3.344 3.353c-1.911 0-3.345-1.533-3.345-3.353a3.328 3.328 0 013.345-3.353c1.815 0 3.344 1.533 3.344 3.353zm45.096 0a3.327 3.327 0 01-3.344 3.353c-1.815 0-3.344-1.533-3.344-3.353a3.328 3.328 0 013.344-3.353c1.816 0 3.344 1.533 3.344 3.353zm45.192 0a3.327 3.327 0 01-3.344 3.353c-1.911 0-3.344-1.533-3.344-3.353a3.328 3.328 0 013.344-3.353c1.816 0 3.344 1.533 3.344 3.353zm45.098 0a3.328 3.328 0 01-3.345 3.353c-1.91 0-3.344-1.533-3.344-3.353a3.328 3.328 0 013.344-3.353c1.911 0 3.345 1.533 3.345 3.353zm45.192 0a3.328 3.328 0 01-3.344 3.353c-1.911 0-3.344-1.533-3.344-3.353a3.327 3.327 0 013.344-3.353c1.815 0 3.344 1.533 3.344 3.353zm-406.253 0a3.328 3.328 0 01-3.344 3.353c-1.911 0-3.344-1.533-3.344-3.353a3.327 3.327 0 013.344-3.353c1.815 0 3.344 1.533 3.344 3.353zM31.073 140.608a3.328 3.328 0 01-3.344 3.353c-1.911 0-3.345-1.533-3.345-3.353a3.328 3.328 0 013.345-3.353c1.815-.096 3.344 1.437 3.344 3.353zm45.097 0a3.328 3.328 0 01-3.345 3.353c-1.91 0-3.344-1.533-3.344-3.353a3.328 3.328 0 013.344-3.353c1.816-.096 3.344 1.437 3.344 3.353zm90.288 0a3.328 3.328 0 01-3.344 3.353c-1.911 0-3.344-1.533-3.344-3.353a3.328 3.328 0 013.344-3.353c1.815-.096 3.344 1.437 3.344 3.353zm180.579 0a3.328 3.328 0 01-3.344 3.353c-1.816 0-3.344-1.533-3.344-3.353a3.327 3.327 0 013.344-3.353 3.328 3.328 0 013.344 3.353zm90.288 0a3.327 3.327 0 01-3.344 3.353c-1.911 0-3.344-1.533-3.344-3.353a3.328 3.328 0 013.344-3.353c1.816-.096 3.344 1.437 3.344 3.353zm45.097 0a3.328 3.328 0 01-3.344 3.353c-1.911 0-3.344-1.533-3.344-3.353a3.328 3.328 0 013.344-3.353c1.815-.096 3.344 1.437 3.344 3.353zm45.192 0a3.327 3.327 0 01-3.344 3.353c-1.911 0-3.344-1.533-3.344-3.353a3.328 3.328 0 013.344-3.353c1.816-.096 3.344 1.437 3.344 3.353zm45.097 0a3.328 3.328 0 01-3.344 3.353c-1.911 0-3.344-1.533-3.344-3.353a3.328 3.328 0 013.344-3.353c1.815-.096 3.344 1.437 3.344 3.353zm-451.349 0a3.328 3.328 0 01-3.344 3.353c-1.816 0-3.344-1.533-3.344-3.353a3.327 3.327 0 013.344-3.353 3.328 3.328 0 013.344 3.353zm-67.742-12.07a3.328 3.328 0 01-3.343 3.353c-1.816 0-3.344-1.533-3.344-3.353 0-1.82 1.528-3.353 3.344-3.353 1.815 0 3.344 1.533 3.344 3.353zm45.098 0a3.328 3.328 0 01-3.344 3.353c-1.911 0-3.344-1.533-3.344-3.353 0-1.82 1.528-3.353 3.344-3.353 1.91 0 3.344 1.533 3.344 3.353zm225.77 0a3.328 3.328 0 01-3.344 3.353c-1.911 0-3.344-1.533-3.344-3.353 0-1.82 1.529-3.353 3.344-3.353s3.344 1.533 3.344 3.353zm135.385 0a3.327 3.327 0 01-3.344 3.353c-1.911 0-3.344-1.533-3.344-3.353 0-1.82 1.529-3.353 3.344-3.353 1.816 0 3.344 1.533 3.344 3.353zm45.098 0a3.328 3.328 0 01-3.345 3.353c-1.91 0-3.344-1.533-3.344-3.353 0-1.82 1.529-3.353 3.344-3.353 1.911 0 3.345 1.533 3.345 3.353zm45.192 0a3.328 3.328 0 01-3.344 3.353c-1.911 0-3.344-1.533-3.344-3.353 0-1.82 1.528-3.353 3.344-3.353 1.815 0 3.344 1.533 3.344 3.353zm-406.253 0a3.328 3.328 0 01-3.344 3.353c-1.911 0-3.344-1.533-3.344-3.353 0-1.82 1.528-3.353 3.344-3.353 1.815 0 3.344 1.533 3.344 3.353zM53.62 200.67a3.327 3.327 0 01-3.343 3.352c-1.816 0-3.344-1.532-3.344-3.352 0-1.82 1.528-3.353 3.344-3.353a3.328 3.328 0 013.344 3.353zm45.098 0a3.327 3.327 0 01-3.344 3.352c-1.911 0-3.344-1.532-3.344-3.352 0-1.82 1.528-3.353 3.344-3.353 1.91-.096 3.344 1.437 3.344 3.353zm361.155 0a3.326 3.326 0 01-3.344 3.352c-1.911 0-3.344-1.532-3.344-3.352 0-1.82 1.529-3.353 3.344-3.353 1.816-.096 3.344 1.437 3.344 3.353zm45.098 0a3.327 3.327 0 01-3.345 3.352c-1.91 0-3.344-1.532-3.344-3.352 0-1.82 1.529-3.353 3.344-3.353 1.911-.096 3.345 1.437 3.345 3.353zm45.192 0a3.327 3.327 0 01-3.344 3.352c-1.911 0-3.344-1.532-3.344-3.352 0-1.82 1.528-3.353 3.344-3.353 1.815-.096 3.344 1.437 3.344 3.353zm-406.253 0a3.327 3.327 0 01-3.344 3.352c-1.911 0-3.344-1.532-3.344-3.352 0-1.82 1.528-3.353 3.344-3.353 1.815-.096 3.344 1.437 3.344 3.353zm-90.29-24.044a3.327 3.327 0 01-3.343 3.352c-1.816 0-3.344-1.532-3.344-3.352a3.328 3.328 0 013.344-3.353 3.328 3.328 0 013.344 3.353zm45.098 0a3.328 3.328 0 01-3.344 3.353c-1.911 0-3.344-1.533-3.344-3.353a3.328 3.328 0 013.344-3.353c1.91-.096 3.344 1.437 3.344 3.353zm135.481 0a3.328 3.328 0 01-3.344 3.353c-1.911 0-3.344-1.533-3.344-3.353a3.327 3.327 0 013.344-3.353c1.815-.096 3.344 1.437 3.344 3.353zm135.386 0a3.328 3.328 0 01-3.344 3.353c-1.911 0-3.345-1.533-3.345-3.353a3.328 3.328 0 013.345-3.353c1.815-.096 3.344 1.437 3.344 3.353zm45.096 0a3.326 3.326 0 01-3.344 3.352c-1.815 0-3.344-1.532-3.344-3.352a3.328 3.328 0 013.344-3.353 3.327 3.327 0 013.344 3.353zm45.192 0a3.327 3.327 0 01-3.344 3.353c-1.911 0-3.344-1.533-3.344-3.353a3.328 3.328 0 013.344-3.353c1.816-.096 3.344 1.437 3.344 3.353zm45.098 0a3.328 3.328 0 01-3.345 3.353c-1.91 0-3.344-1.533-3.344-3.353a3.328 3.328 0 013.344-3.353c1.911-.096 3.345 1.437 3.345 3.353zm45.192 0a3.328 3.328 0 01-3.344 3.353c-1.911 0-3.344-1.533-3.344-3.353a3.327 3.327 0 013.344-3.353c1.815-.096 3.344 1.437 3.344 3.353zm45.096-120.124a3.328 3.328 0 01-3.344 3.353c-1.911 0-3.344-1.533-3.344-3.353a3.328 3.328 0 013.344-3.352 3.328 3.328 0 013.344 3.352zm0-24.044a3.328 3.328 0 01-3.344 3.353c-1.911 0-3.344-1.533-3.344-3.353a3.328 3.328 0 013.344-3.352c1.815 0 3.344 1.532 3.344 3.352zm0 72.132a3.328 3.328 0 01-3.344 3.353c-1.911 0-3.344-1.533-3.344-3.353a3.328 3.328 0 013.344-3.353c1.815-.096 3.344 1.437 3.344 3.353zm0-24.044a3.328 3.328 0 01-3.344 3.353c-1.911 0-3.344-1.533-3.344-3.353 0-1.82 1.529-3.353 3.344-3.353 1.815-.095 3.344 1.437 3.344 3.353zm0 168.116a3.328 3.328 0 01-3.344 3.352c-1.911 0-3.344-1.532-3.344-3.352a3.328 3.328 0 013.344-3.353c1.815 0 3.344 1.533 3.344 3.353zm0 24.043a3.328 3.328 0 01-3.344 3.353c-1.911 0-3.344-1.532-3.344-3.353 0-1.82 1.529-3.352 3.344-3.352 1.815-.096 3.344 1.437 3.344 3.352zm0 24.428a3.328 3.328 0 01-3.344 3.352c-1.911 0-3.344-1.532-3.344-3.352a3.328 3.328 0 013.344-3.353c1.815 0 3.344 1.532 3.344 3.353zm0-72.515a3.327 3.327 0 01-3.344 3.352c-1.911 0-3.344-1.532-3.344-3.352a3.328 3.328 0 013.344-3.353c1.815 0 3.344 1.533 3.344 3.353zm-135.386 96.367a3.327 3.327 0 01-3.344 3.353c-1.911 0-3.344-1.533-3.344-3.353 0-1.82 1.529-3.353 3.344-3.353 1.816-.096 3.344 1.437 3.344 3.353zm45.098 0a3.328 3.328 0 01-3.345 3.353c-1.91 0-3.344-1.533-3.344-3.353 0-1.82 1.529-3.353 3.344-3.353 1.911-.096 3.345 1.437 3.345 3.353zm45.192 0a3.328 3.328 0 01-3.344 3.353c-1.911 0-3.344-1.533-3.344-3.353 0-1.82 1.528-3.353 3.344-3.353 1.815-.096 3.344 1.437 3.344 3.353zm-112.838-12.07a3.327 3.327 0 01-3.344 3.353c-1.911 0-3.344-1.533-3.344-3.353 0-1.82 1.529-3.353 3.344-3.353 1.816 0 3.344 1.533 3.344 3.353zm45.097 0a3.328 3.328 0 01-3.344 3.353c-1.911 0-3.344-1.533-3.344-3.353 0-1.82 1.529-3.353 3.344-3.353s3.344 1.533 3.344 3.353zm45.192 0a3.327 3.327 0 01-3.344 3.353c-1.911 0-3.344-1.533-3.344-3.353 0-1.82 1.529-3.353 3.344-3.353 1.816 0 3.344 1.533 3.344 3.353zm45.097 0a3.328 3.328 0 01-3.344 3.353c-1.911 0-3.344-1.533-3.344-3.353 0-1.82 1.529-3.353 3.344-3.353s3.344 1.533 3.344 3.353zm-248.223 12.07a3.328 3.328 0 01-3.344 3.353c-1.911 0-3.344-1.533-3.344-3.353 0-1.82 1.529-3.353 3.344-3.353 1.815-.096 3.344 1.437 3.344 3.353zm45.097 0a3.328 3.328 0 01-3.344 3.353c-1.911 0-3.345-1.533-3.345-3.353 0-1.82 1.529-3.353 3.345-3.353 1.815-.096 3.344 1.437 3.344 3.353zm45.096 0a3.327 3.327 0 01-3.344 3.353c-1.815 0-3.344-1.533-3.344-3.353 0-1.82 1.529-3.353 3.344-3.353a3.327 3.327 0 013.344 3.353zm-135.385 0a3.328 3.328 0 01-3.344 3.353c-1.816 0-3.344-1.533-3.344-3.353 0-1.82 1.528-3.353 3.344-3.353a3.328 3.328 0 013.344 3.353zm22.548-12.07a3.328 3.328 0 01-3.344 3.353c-1.911 0-3.344-1.533-3.344-3.353 0-1.82 1.528-3.353 3.344-3.353 1.911 0 3.344 1.533 3.344 3.353zm45.193 0a3.328 3.328 0 01-3.344 3.353c-1.816 0-3.344-1.533-3.344-3.353 0-1.82 1.528-3.353 3.344-3.353 1.815 0 3.344 1.533 3.344 3.353zm-112.838 12.07a3.328 3.328 0 01-3.344 3.353c-1.911 0-3.344-1.533-3.344-3.353 0-1.82 1.528-3.353 3.344-3.353 1.815-.096 3.344 1.437 3.344 3.353zm-22.548-12.07a3.328 3.328 0 01-3.344 3.353c-1.816 0-3.344-1.533-3.344-3.353 0-1.82 1.528-3.353 3.344-3.353 1.815 0 3.344 1.533 3.344 3.353zm45.096 0a3.327 3.327 0 01-3.344 3.353c-1.911 0-3.344-1.533-3.344-3.353 0-1.82 1.529-3.353 3.344-3.353 1.816 0 3.344 1.533 3.344 3.353zm135.386 0a3.328 3.328 0 01-3.344 3.353c-1.911 0-3.344-1.533-3.344-3.353 0-1.82 1.529-3.353 3.344-3.353s3.344 1.533 3.344 3.353zm203.126 12.07a3.328 3.328 0 01-3.344 3.353c-1.911 0-3.344-1.533-3.344-3.353 0-1.82 1.529-3.353 3.344-3.353 1.815-.096 3.344 1.437 3.344 3.353zm0-168.403a3.328 3.328 0 01-3.344 3.353c-1.911 0-3.344-1.533-3.344-3.353a3.328 3.328 0 013.344-3.353c1.815 0 3.344 1.533 3.344 3.353zm0-24.044a3.328 3.328 0 01-3.344 3.353c-1.911 0-3.344-1.533-3.344-3.353 0-1.82 1.529-3.353 3.344-3.353s3.344 1.533 3.344 3.353zm0 72.132a3.327 3.327 0 01-3.344 3.352c-1.911 0-3.344-1.532-3.344-3.352 0-1.82 1.529-3.353 3.344-3.353 1.815-.096 3.344 1.437 3.344 3.353zm0-24.044a3.328 3.328 0 01-3.344 3.353c-1.911 0-3.344-1.533-3.344-3.353a3.328 3.328 0 013.344-3.353c1.815-.096 3.344 1.437 3.344 3.353zm-451.349 0a3.328 3.328 0 01-3.344 3.353c-1.911 0-3.344-1.533-3.344-3.353a3.327 3.327 0 013.344-3.353c1.815-.096 3.344 1.437 3.344 3.353z" fill="#42ABB4"/><path d="M31.073 20.484a3.328 3.328 0 01-3.344 3.353c-1.911 0-3.345-1.533-3.345-3.353a3.328 3.328 0 013.345-3.352c1.815-.096 3.344 1.436 3.344 3.352zM8.525 56.502a3.327 3.327 0 01-3.345 3.353c-1.91 0-3.344-1.533-3.344-3.353A3.328 3.328 0 015.18 53.15a3.328 3.328 0 013.345 3.352zm0-24.044a3.328 3.328 0 01-3.345 3.353c-1.91 0-3.344-1.533-3.344-3.353a3.327 3.327 0 013.344-3.352c1.816 0 3.345 1.532 3.345 3.352zm0 72.132a3.328 3.328 0 01-3.345 3.353c-1.91 0-3.344-1.533-3.344-3.353a3.328 3.328 0 013.344-3.353c1.816-.096 3.345 1.437 3.345 3.353zm0-24.044A3.328 3.328 0 015.18 83.9c-1.91 0-3.344-1.533-3.344-3.353 0-1.82 1.53-3.353 3.344-3.353 1.816-.095 3.345 1.437 3.345 3.353zm0 168.116a3.327 3.327 0 01-3.345 3.352c-1.91 0-3.344-1.532-3.344-3.352a3.328 3.328 0 013.344-3.353c1.816 0 3.345 1.533 3.345 3.353zm0 24.043a3.328 3.328 0 01-3.345 3.353c-1.91 0-3.344-1.532-3.344-3.353 0-1.82 1.53-3.352 3.344-3.352 1.816-.096 3.345 1.437 3.345 3.352zm0 24.428a3.327 3.327 0 01-3.345 3.352c-1.91 0-3.344-1.532-3.344-3.352a3.328 3.328 0 013.344-3.353c1.816 0 3.345 1.532 3.345 3.353zm45.095 24.043a3.328 3.328 0 01-3.343 3.353c-1.816 0-3.344-1.533-3.344-3.353a3.327 3.327 0 013.344-3.352 3.327 3.327 0 013.344 3.352zm45.098 0a3.328 3.328 0 01-3.344 3.353c-1.911 0-3.344-1.533-3.344-3.353a3.327 3.327 0 013.344-3.352c1.91 0 3.344 1.436 3.344 3.352zm90.288 0a3.327 3.327 0 01-3.344 3.353c-1.815 0-3.344-1.533-3.344-3.353a3.327 3.327 0 013.344-3.352 3.326 3.326 0 013.344 3.352zm-45.096 0a3.328 3.328 0 01-3.344 3.353c-1.911 0-3.344-1.533-3.344-3.353a3.326 3.326 0 013.344-3.352 3.327 3.327 0 013.344 3.352zM31.073 309.202a3.328 3.328 0 01-3.344 3.353c-1.911 0-3.345-1.533-3.345-3.353a3.327 3.327 0 013.345-3.352c1.815-.096 3.344 1.436 3.344 3.352zm45.097 0a3.328 3.328 0 01-3.345 3.353c-1.91 0-3.344-1.533-3.344-3.353a3.327 3.327 0 013.344-3.352c1.816-.096 3.344 1.436 3.344 3.352zm90.288 0a3.328 3.328 0 01-3.344 3.353c-1.911 0-3.344-1.533-3.344-3.353a3.327 3.327 0 013.344-3.352c1.815-.096 3.344 1.436 3.344 3.352zm-45.096 0a3.328 3.328 0 01-3.344 3.353c-1.816 0-3.344-1.533-3.344-3.353a3.326 3.326 0 013.344-3.352 3.327 3.327 0 013.344 3.352zM8.525 321.176a3.328 3.328 0 01-3.345 3.353c-1.91 0-3.344-1.533-3.344-3.353a3.327 3.327 0 013.344-3.352 3.327 3.327 0 013.345 3.352zM459.873 8.223a3.327 3.327 0 01-3.344 3.353c-1.911 0-3.344-1.533-3.344-3.353a3.328 3.328 0 013.344-3.353c1.816 0 3.344 1.533 3.344 3.353zm45.098 0a3.328 3.328 0 01-3.345 3.353c-1.91 0-3.344-1.533-3.344-3.353a3.328 3.328 0 013.344-3.353c1.911 0 3.345 1.533 3.345 3.353zm45.192 0a3.328 3.328 0 01-3.344 3.353c-1.911 0-3.344-1.533-3.344-3.353a3.327 3.327 0 013.344-3.353c1.815 0 3.344 1.533 3.344 3.353zm-225.675 0a3.328 3.328 0 01-3.344 3.353c-1.911 0-3.344-1.533-3.344-3.353a3.328 3.328 0 013.344-3.353c1.815 0 3.344 1.533 3.344 3.353zm45.097 0a3.328 3.328 0 01-3.344 3.353c-1.911 0-3.345-1.533-3.345-3.353a3.328 3.328 0 013.345-3.353c1.815 0 3.344 1.533 3.344 3.353zm45.096 0a3.327 3.327 0 01-3.344 3.353c-1.815 0-3.344-1.533-3.344-3.353a3.328 3.328 0 013.344-3.353c1.816 0 3.344 1.533 3.344 3.353zm-135.385 0a3.328 3.328 0 01-3.344 3.353c-1.816 0-3.344-1.533-3.344-3.353a3.327 3.327 0 013.344-3.353c1.815 0 3.344 1.533 3.344 3.353zm-45.097 0a3.328 3.328 0 01-3.344 3.353c-1.911 0-3.344-1.533-3.344-3.353a3.327 3.327 0 013.344-3.353c1.815 0 3.344 1.533 3.344 3.353zm361.06 0a3.328 3.328 0 01-3.344 3.353c-1.911 0-3.344-1.533-3.344-3.353a3.328 3.328 0 013.344-3.353c1.815 0 3.344 1.533 3.344 3.353zM53.62 8.414a3.328 3.328 0 01-3.343 3.353c-1.816 0-3.344-1.532-3.344-3.353 0-1.82 1.528-3.352 3.344-3.352 1.815 0 3.344 1.532 3.344 3.352zm45.098 0a3.328 3.328 0 01-3.344 3.353c-1.911 0-3.344-1.532-3.344-3.353 0-1.82 1.528-3.352 3.344-3.352 1.91 0 3.344 1.532 3.344 3.352zm90.288 0a3.327 3.327 0 01-3.344 3.353c-1.815 0-3.344-1.532-3.344-3.353 0-1.82 1.529-3.352 3.344-3.352 1.816 0 3.344 1.532 3.344 3.352zm-45.096 0a3.328 3.328 0 01-3.344 3.353c-1.911 0-3.344-1.532-3.344-3.353 0-1.82 1.528-3.352 3.344-3.352 1.815 0 3.344 1.532 3.344 3.352zm-135.385 0a3.328 3.328 0 01-3.345 3.353c-1.91 0-3.344-1.532-3.344-3.353 0-1.82 1.53-3.352 3.344-3.352 1.816 0 3.345 1.532 3.345 3.352zm0 216.204a3.327 3.327 0 01-3.345 3.352c-1.91 0-3.344-1.532-3.344-3.352a3.328 3.328 0 013.344-3.353c1.816 0 3.345 1.533 3.345 3.353zm0-72.036a3.328 3.328 0 01-3.345 3.353c-1.91 0-3.344-1.533-3.344-3.353a3.328 3.328 0 013.344-3.353c1.816 0 3.345 1.533 3.345 3.353zm0-24.044a3.328 3.328 0 01-3.345 3.353c-1.91 0-3.344-1.533-3.344-3.353 0-1.82 1.53-3.353 3.344-3.353 1.816 0 3.345 1.533 3.345 3.353zm0 72.132a3.327 3.327 0 01-3.345 3.352c-1.91 0-3.344-1.532-3.344-3.352 0-1.82 1.53-3.353 3.344-3.353 1.816-.096 3.345 1.437 3.345 3.353zm0-24.044a3.328 3.328 0 01-3.345 3.353c-1.91 0-3.344-1.533-3.344-3.353a3.328 3.328 0 013.344-3.353c1.816-.096 3.345 1.437 3.345 3.353z" fill="#42ABB4"/></svg>